<mxfile host="app.diagrams.net" modified="2020-08-18T11:08:55.470Z" agent="5.0 (Windows NT 10.0; WOW64) AppleWebKit/537.36 (KHTML, like Gecko) Chrome/81.0.4044.138 Safari/537.36" etag="x4wibE_LChXZnQ_hJDEM" version="13.6.2" type="github">
  <diagram id="dxhuNMQIHAr0Fr-byvL5" name="Page-1">
    <mxGraphModel dx="1673" dy="1038" grid="0" gridSize="21" guides="1" tooltips="1" connect="1" arrows="1" fold="1" page="1" pageScale="1" pageWidth="1654" pageHeight="2336" background="none" math="0" shadow="1">
      <root>
        <mxCell id="0" />
        <mxCell id="1" parent="0" />
        <mxCell id="HGymCE_MMpxh3qqSFFxv-15" style="edgeStyle=orthogonalEdgeStyle;rounded=0;orthogonalLoop=1;jettySize=auto;html=1;exitX=1;exitY=0.5;exitDx=0;exitDy=0;entryX=0;entryY=0.5;entryDx=0;entryDy=0;" edge="1" parent="1" source="HGymCE_MMpxh3qqSFFxv-1" target="HGymCE_MMpxh3qqSFFxv-11">
          <mxGeometry relative="1" as="geometry" />
        </mxCell>
        <mxCell id="HGymCE_MMpxh3qqSFFxv-16" value="&lt;span style=&quot;font-size: 12px ; background-color: rgb(248 , 249 , 250)&quot;&gt;first_value() over()&lt;/span&gt;" style="edgeLabel;html=1;align=center;verticalAlign=middle;resizable=0;points=[];" vertex="1" connectable="0" parent="HGymCE_MMpxh3qqSFFxv-15">
          <mxGeometry x="0.2133" y="-2" relative="1" as="geometry">
            <mxPoint as="offset" />
          </mxGeometry>
        </mxCell>
        <mxCell id="HGymCE_MMpxh3qqSFFxv-1" value="&lt;span style=&quot;color: rgb(77 , 77 , 77) ; font-family: &amp;#34;helvetica neue for number&amp;#34; , , &amp;#34;blinkmacsystemfont&amp;#34; , &amp;#34;segoe ui&amp;#34; , &amp;#34;roboto&amp;#34; , &amp;#34;pingfang sc&amp;#34; , &amp;#34;hiragino sans gb&amp;#34; , &amp;#34;microsoft yahei&amp;#34; , &amp;#34;helvetica neue&amp;#34; , &amp;#34;helvetica&amp;#34; , &amp;#34;arial&amp;#34; , sans-serif ; font-size: 13px ; background-color: rgb(255 , 255 , 255)&quot;&gt;【微视】新日活模型weishi_user_active_model_topic_daily&lt;/span&gt;" style="rounded=0;whiteSpace=wrap;html=1;fillColor=#d5e8d4;strokeColor=#82b366;" vertex="1" parent="1">
          <mxGeometry x="50" y="190" width="280" height="60" as="geometry" />
        </mxCell>
        <mxCell id="HGymCE_MMpxh3qqSFFxv-20" style="edgeStyle=orthogonalEdgeStyle;rounded=0;orthogonalLoop=1;jettySize=auto;html=1;exitX=0.5;exitY=0;exitDx=0;exitDy=0;entryX=0.5;entryY=1;entryDx=0;entryDy=0;" edge="1" parent="1" source="HGymCE_MMpxh3qqSFFxv-2" target="HGymCE_MMpxh3qqSFFxv-6">
          <mxGeometry relative="1" as="geometry" />
        </mxCell>
        <mxCell id="HGymCE_MMpxh3qqSFFxv-21" value="select&lt;br&gt;qimei&lt;br&gt;where is_new= ‘1’" style="edgeLabel;html=1;align=center;verticalAlign=middle;resizable=0;points=[];" vertex="1" connectable="0" parent="HGymCE_MMpxh3qqSFFxv-20">
          <mxGeometry x="0.1882" y="-2" relative="1" as="geometry">
            <mxPoint as="offset" />
          </mxGeometry>
        </mxCell>
        <mxCell id="HGymCE_MMpxh3qqSFFxv-35" style="edgeStyle=orthogonalEdgeStyle;rounded=0;orthogonalLoop=1;jettySize=auto;html=1;exitX=1;exitY=0.5;exitDx=0;exitDy=0;entryX=0;entryY=0.5;entryDx=0;entryDy=0;" edge="1" parent="1" source="HGymCE_MMpxh3qqSFFxv-2" target="HGymCE_MMpxh3qqSFFxv-32">
          <mxGeometry relative="1" as="geometry" />
        </mxCell>
        <mxCell id="HGymCE_MMpxh3qqSFFxv-36" value="新增用户表&lt;br&gt;join&lt;br&gt;sum（新老融合表特征）" style="edgeLabel;html=1;align=center;verticalAlign=middle;resizable=0;points=[];" vertex="1" connectable="0" parent="HGymCE_MMpxh3qqSFFxv-35">
          <mxGeometry x="0.1922" y="3" relative="1" as="geometry">
            <mxPoint as="offset" />
          </mxGeometry>
        </mxCell>
        <mxCell id="HGymCE_MMpxh3qqSFFxv-2" value="&lt;p style=&quot;box-sizing: border-box ; margin-top: 0px ; margin-bottom: 0px ; font-size: 13px ; padding: 4px ; line-height: 18px ; overflow: hidden ; display: flex ; color: rgb(77 , 77 , 77) ; font-family: &amp;#34;helvetica neue for number&amp;#34; , , &amp;#34;blinkmacsystemfont&amp;#34; , &amp;#34;segoe ui&amp;#34; , &amp;#34;roboto&amp;#34; , &amp;#34;pingfang sc&amp;#34; , &amp;#34;hiragino sans gb&amp;#34; , &amp;#34;microsoft yahei&amp;#34; , &amp;#34;helvetica neue&amp;#34; , &amp;#34;helvetica&amp;#34; , &amp;#34;arial&amp;#34; , sans-serif&quot;&gt;&lt;span style=&quot;box-sizing: border-box ; display: block ; width: 220px ; padding: 0px 4px ; word-break: break-all&quot;&gt;【新老融合】微视用户日活融合中间表weishi_user_qimei_dau_mix_mid_daily&lt;/span&gt;&lt;/p&gt;&lt;p style=&quot;box-sizing: border-box ; margin-top: 0px ; margin-bottom: 0px ; font-size: 13px ; padding: 4px ; line-height: 18px ; overflow: hidden ; display: flex ; color: rgb(77 , 77 , 77) ; font-family: &amp;#34;helvetica neue for number&amp;#34; , , &amp;#34;blinkmacsystemfont&amp;#34; , &amp;#34;segoe ui&amp;#34; , &amp;#34;roboto&amp;#34; , &amp;#34;pingfang sc&amp;#34; , &amp;#34;hiragino sans gb&amp;#34; , &amp;#34;microsoft yahei&amp;#34; , &amp;#34;helvetica neue&amp;#34; , &amp;#34;helvetica&amp;#34; , &amp;#34;arial&amp;#34; , sans-serif&quot;&gt;&lt;/p&gt;" style="rounded=0;whiteSpace=wrap;html=1;fillColor=#d5e8d4;strokeColor=#82b366;" vertex="1" parent="1">
          <mxGeometry x="35" y="815" width="260" height="60" as="geometry" />
        </mxCell>
        <mxCell id="HGymCE_MMpxh3qqSFFxv-4" value="&lt;span style=&quot;color: rgb(77 , 77 , 77) ; font-family: &amp;#34;helvetica neue for number&amp;#34; , , &amp;#34;blinkmacsystemfont&amp;#34; , &amp;#34;segoe ui&amp;#34; , &amp;#34;roboto&amp;#34; , &amp;#34;pingfang sc&amp;#34; , &amp;#34;hiragino sans gb&amp;#34; , &amp;#34;microsoft yahei&amp;#34; , &amp;#34;helvetica neue&amp;#34; , &amp;#34;helvetica&amp;#34; , &amp;#34;arial&amp;#34; , sans-serif ; font-size: 13px ; background-color: rgb(255 , 255 , 255)&quot;&gt;[福利] 用户长周期维度表| &lt;br&gt;取红包数据dim_weishi_task_qimei_long_cycle_di&lt;/span&gt;" style="rounded=0;whiteSpace=wrap;html=1;fillColor=#d5e8d4;strokeColor=#82b366;" vertex="1" parent="1">
          <mxGeometry x="631" y="1123" width="309" height="60" as="geometry" />
        </mxCell>
        <mxCell id="HGymCE_MMpxh3qqSFFxv-31" style="edgeStyle=orthogonalEdgeStyle;rounded=0;orthogonalLoop=1;jettySize=auto;html=1;exitX=1;exitY=0.5;exitDx=0;exitDy=0;" edge="1" parent="1" source="HGymCE_MMpxh3qqSFFxv-6">
          <mxGeometry relative="1" as="geometry">
            <mxPoint x="630" y="540" as="targetPoint" />
            <Array as="points">
              <mxPoint x="589" y="540" />
              <mxPoint x="589" y="540" />
            </Array>
          </mxGeometry>
        </mxCell>
        <mxCell id="HGymCE_MMpxh3qqSFFxv-6" value="&lt;span style=&quot;color: rgb(77 , 77 , 77) ; font-family: &amp;#34;helvetica neue for number&amp;#34; , , &amp;#34;blinkmacsystemfont&amp;#34; , &amp;#34;segoe ui&amp;#34; , &amp;#34;roboto&amp;#34; , &amp;#34;pingfang sc&amp;#34; , &amp;#34;hiragino sans gb&amp;#34; , &amp;#34;microsoft yahei&amp;#34; , &amp;#34;helvetica neue&amp;#34; , &amp;#34;helvetica&amp;#34; , &amp;#34;arial&amp;#34; , sans-serif ; font-size: 13px ; background-color: rgb(255 , 255 , 255)&quot;&gt;t_pba_weishi_lt_new_user&lt;br&gt;提取的新增用户表&lt;br&gt;&lt;/span&gt;" style="rounded=0;whiteSpace=wrap;html=1;" vertex="1" parent="1">
          <mxGeometry x="80" y="510" width="170" height="60" as="geometry" />
        </mxCell>
        <mxCell id="HGymCE_MMpxh3qqSFFxv-11" value="t_pba_weishi_lt_fstv&lt;br&gt;新增用户新增当天的特征" style="rounded=0;whiteSpace=wrap;html=1;" vertex="1" parent="1">
          <mxGeometry x="1480" y="190" width="300" height="60" as="geometry" />
        </mxCell>
        <mxCell id="HGymCE_MMpxh3qqSFFxv-18" value="微视LT &amp;amp; 时长 &amp;amp; 渠道表&lt;br&gt;t_pba_weishi_lt_label_3&lt;br&gt;t_pba_weishi_lt_label_7&lt;br&gt;t_pba_weishi_lt_label_14&lt;br&gt;t_pba_weishi_lt_label_21&lt;br&gt;t_pba_weishi_lt_label_30&lt;br&gt;t_pba_weishi_lt_label_60&lt;br&gt;t_pba_weishi_lt_label_180&lt;br&gt;t_pba_weishi_lt_label_365" style="rounded=0;whiteSpace=wrap;html=1;fillColor=#dae8fc;strokeColor=#6c8ebf;" vertex="1" parent="1">
          <mxGeometry x="640" y="460" width="300" height="150" as="geometry" />
        </mxCell>
        <mxCell id="HGymCE_MMpxh3qqSFFxv-32" value="&lt;span style=&quot;color: rgb(77 , 77 , 77) ; font-family: &amp;#34;helvetica neue for number&amp;#34; , , &amp;#34;blinkmacsystemfont&amp;#34; , &amp;#34;segoe ui&amp;#34; , &amp;#34;roboto&amp;#34; , &amp;#34;pingfang sc&amp;#34; , &amp;#34;hiragino sans gb&amp;#34; , &amp;#34;microsoft yahei&amp;#34; , &amp;#34;helvetica neue&amp;#34; , &amp;#34;helvetica&amp;#34; , &amp;#34;arial&amp;#34; , sans-serif ; font-size: 13px ; background-color: rgb(255 , 255 , 255)&quot;&gt;新增用户特征聚合表&lt;br&gt;t_pba_weishi_lt_1d_acc&lt;br&gt;&lt;/span&gt;&lt;span style=&quot;color: rgb(77 , 77 , 77) ; font-family: &amp;#34;helvetica neue for number&amp;#34; , , &amp;#34;blinkmacsystemfont&amp;#34; , &amp;#34;segoe ui&amp;#34; , &amp;#34;roboto&amp;#34; , &amp;#34;pingfang sc&amp;#34; , &amp;#34;hiragino sans gb&amp;#34; , &amp;#34;microsoft yahei&amp;#34; , &amp;#34;helvetica neue&amp;#34; , &amp;#34;helvetica&amp;#34; , &amp;#34;arial&amp;#34; , sans-serif ; font-size: 13px ; background-color: rgb(255 , 255 , 255)&quot;&gt;t_pba_weishi_lt_3d_acc&lt;br&gt;&lt;/span&gt;&lt;span style=&quot;color: rgb(77 , 77 , 77) ; font-family: &amp;#34;helvetica neue for number&amp;#34; , , &amp;#34;blinkmacsystemfont&amp;#34; , &amp;#34;segoe ui&amp;#34; , &amp;#34;roboto&amp;#34; , &amp;#34;pingfang sc&amp;#34; , &amp;#34;hiragino sans gb&amp;#34; , &amp;#34;microsoft yahei&amp;#34; , &amp;#34;helvetica neue&amp;#34; , &amp;#34;helvetica&amp;#34; , &amp;#34;arial&amp;#34; , sans-serif ; font-size: 13px ; background-color: rgb(255 , 255 , 255)&quot;&gt;t_pba_weishi_lt_7d_acc&lt;br&gt;&lt;/span&gt;&lt;span style=&quot;color: rgb(77 , 77 , 77) ; font-family: &amp;#34;helvetica neue for number&amp;#34; , , &amp;#34;blinkmacsystemfont&amp;#34; , &amp;#34;segoe ui&amp;#34; , &amp;#34;roboto&amp;#34; , &amp;#34;pingfang sc&amp;#34; , &amp;#34;hiragino sans gb&amp;#34; , &amp;#34;microsoft yahei&amp;#34; , &amp;#34;helvetica neue&amp;#34; , &amp;#34;helvetica&amp;#34; , &amp;#34;arial&amp;#34; , sans-serif ; font-size: 13px ; background-color: rgb(255 , 255 , 255)&quot;&gt;t_pba_weishi_lt_14d_acc&lt;/span&gt;&lt;span style=&quot;color: rgb(77 , 77 , 77) ; font-family: &amp;#34;helvetica neue for number&amp;#34; , , &amp;#34;blinkmacsystemfont&amp;#34; , &amp;#34;segoe ui&amp;#34; , &amp;#34;roboto&amp;#34; , &amp;#34;pingfang sc&amp;#34; , &amp;#34;hiragino sans gb&amp;#34; , &amp;#34;microsoft yahei&amp;#34; , &amp;#34;helvetica neue&amp;#34; , &amp;#34;helvetica&amp;#34; , &amp;#34;arial&amp;#34; , sans-serif ; font-size: 13px ; background-color: rgb(255 , 255 , 255)&quot;&gt;&lt;br&gt;&lt;/span&gt;&lt;span style=&quot;color: rgb(77 , 77 , 77) ; font-family: &amp;#34;helvetica neue for number&amp;#34; , , &amp;#34;blinkmacsystemfont&amp;#34; , &amp;#34;segoe ui&amp;#34; , &amp;#34;roboto&amp;#34; , &amp;#34;pingfang sc&amp;#34; , &amp;#34;hiragino sans gb&amp;#34; , &amp;#34;microsoft yahei&amp;#34; , &amp;#34;helvetica neue&amp;#34; , &amp;#34;helvetica&amp;#34; , &amp;#34;arial&amp;#34; , sans-serif ; font-size: 13px ; background-color: rgb(255 , 255 , 255)&quot;&gt;t_pba_weishi_lt_30d_acc&lt;/span&gt;&lt;span style=&quot;color: rgb(77 , 77 , 77) ; font-family: &amp;#34;helvetica neue for number&amp;#34; , , &amp;#34;blinkmacsystemfont&amp;#34; , &amp;#34;segoe ui&amp;#34; , &amp;#34;roboto&amp;#34; , &amp;#34;pingfang sc&amp;#34; , &amp;#34;hiragino sans gb&amp;#34; , &amp;#34;microsoft yahei&amp;#34; , &amp;#34;helvetica neue&amp;#34; , &amp;#34;helvetica&amp;#34; , &amp;#34;arial&amp;#34; , sans-serif ; font-size: 13px ; background-color: rgb(255 , 255 , 255)&quot;&gt;&lt;br&gt;&lt;/span&gt;" style="rounded=0;whiteSpace=wrap;html=1;fillColor=#dae8fc;strokeColor=#6c8ebf;" vertex="1" parent="1">
          <mxGeometry x="640" y="790" width="300" height="110" as="geometry" />
        </mxCell>
        <mxCell id="HGymCE_MMpxh3qqSFFxv-50" style="edgeStyle=orthogonalEdgeStyle;rounded=0;orthogonalLoop=1;jettySize=auto;html=1;exitX=1;exitY=0.5;exitDx=0;exitDy=0;entryX=0;entryY=0.5;entryDx=0;entryDy=0;" edge="1" parent="1" target="HGymCE_MMpxh3qqSFFxv-48">
          <mxGeometry relative="1" as="geometry">
            <mxPoint x="967" y="1563" as="sourcePoint" />
          </mxGeometry>
        </mxCell>
        <mxCell id="HGymCE_MMpxh3qqSFFxv-51" style="edgeStyle=orthogonalEdgeStyle;rounded=0;orthogonalLoop=1;jettySize=auto;html=1;exitX=1;exitY=0.5;exitDx=0;exitDy=0;entryX=-0.005;entryY=0.617;entryDx=0;entryDy=0;entryPerimeter=0;" edge="1" parent="1" target="HGymCE_MMpxh3qqSFFxv-49">
          <mxGeometry relative="1" as="geometry">
            <mxPoint x="967" y="1563" as="sourcePoint" />
          </mxGeometry>
        </mxCell>
        <mxCell id="HGymCE_MMpxh3qqSFFxv-37" value="&lt;span style=&quot;color: rgb(77 , 77 , 77) ; font-family: &amp;#34;helvetica neue for number&amp;#34; , , &amp;#34;blinkmacsystemfont&amp;#34; , &amp;#34;segoe ui&amp;#34; , &amp;#34;roboto&amp;#34; , &amp;#34;pingfang sc&amp;#34; , &amp;#34;hiragino sans gb&amp;#34; , &amp;#34;microsoft yahei&amp;#34; , &amp;#34;helvetica neue&amp;#34; , &amp;#34;helvetica&amp;#34; , &amp;#34;arial&amp;#34; , sans-serif ; font-size: 13px ; background-color: rgb(255 , 255 , 255)&quot;&gt;微视qimei全量用户画像dws_weishi_user_qimei_profile_df&lt;/span&gt;" style="rounded=0;whiteSpace=wrap;html=1;fillColor=#d5e8d4;strokeColor=#82b366;" vertex="1" parent="1">
          <mxGeometry x="627" y="1534" width="340" height="60" as="geometry" />
        </mxCell>
        <mxCell id="HGymCE_MMpxh3qqSFFxv-112" style="edgeStyle=orthogonalEdgeStyle;rounded=0;orthogonalLoop=1;jettySize=auto;html=1;exitX=1;exitY=0.5;exitDx=0;exitDy=0;fillColor=#008a00;strokeColor=#005700;" edge="1" parent="1" source="HGymCE_MMpxh3qqSFFxv-38">
          <mxGeometry relative="1" as="geometry">
            <mxPoint x="1929.0000000000005" y="917.1428571428573" as="targetPoint" />
          </mxGeometry>
        </mxCell>
        <mxCell id="HGymCE_MMpxh3qqSFFxv-113" value="取聚合后的特征" style="edgeLabel;html=1;align=center;verticalAlign=middle;resizable=0;points=[];" vertex="1" connectable="0" parent="HGymCE_MMpxh3qqSFFxv-112">
          <mxGeometry x="0.2827" relative="1" as="geometry">
            <mxPoint x="1" as="offset" />
          </mxGeometry>
        </mxCell>
        <mxCell id="HGymCE_MMpxh3qqSFFxv-38" value="&lt;span style=&quot;color: rgb(77 , 77 , 77) ; font-size: 17px ; background-color: rgb(255 , 255 , 255)&quot;&gt;&lt;b&gt;特征1d - 30d的聚合中间表&lt;br&gt;t_pba_ws_lt_feat_v1_sum&lt;/b&gt;&lt;/span&gt;" style="rounded=0;whiteSpace=wrap;html=1;" vertex="1" parent="1">
          <mxGeometry x="1178" y="771" width="299" height="143" as="geometry" />
        </mxCell>
        <mxCell id="HGymCE_MMpxh3qqSFFxv-65" style="edgeStyle=orthogonalEdgeStyle;rounded=0;orthogonalLoop=1;jettySize=auto;html=1;exitX=1;exitY=0.5;exitDx=0;exitDy=0;entryX=0.5;entryY=0;entryDx=0;entryDy=0;" edge="1" parent="1" source="HGymCE_MMpxh3qqSFFxv-45" target="HGymCE_MMpxh3qqSFFxv-55">
          <mxGeometry relative="1" as="geometry" />
        </mxCell>
        <mxCell id="HGymCE_MMpxh3qqSFFxv-66" value="新增用户表&lt;br&gt;left join&lt;br&gt;past_lt7&lt;br&gt;left join past_lt14&lt;br&gt;left join past_lt30" style="edgeLabel;html=1;align=center;verticalAlign=middle;resizable=0;points=[];" vertex="1" connectable="0" parent="HGymCE_MMpxh3qqSFFxv-65">
          <mxGeometry x="0.8498" relative="1" as="geometry">
            <mxPoint as="offset" />
          </mxGeometry>
        </mxCell>
        <mxCell id="HGymCE_MMpxh3qqSFFxv-45" value="&lt;span style=&quot;color: rgb(77 , 77 , 77) ; font-family: &amp;#34;helvetica neue for number&amp;#34; , , &amp;#34;blinkmacsystemfont&amp;#34; , &amp;#34;segoe ui&amp;#34; , &amp;#34;roboto&amp;#34; , &amp;#34;pingfang sc&amp;#34; , &amp;#34;hiragino sans gb&amp;#34; , &amp;#34;microsoft yahei&amp;#34; , &amp;#34;helvetica neue&amp;#34; , &amp;#34;helvetica&amp;#34; , &amp;#34;arial&amp;#34; , sans-serif ; font-size: 13px ; background-color: rgb(255 , 255 , 255)&quot;&gt;新增渠道过去x天前一星期的平均LT值&lt;br&gt;t_pba_weishi_past_lt7&lt;br&gt;&lt;/span&gt;&lt;span style=&quot;color: rgb(77 , 77 , 77) ; font-family: &amp;#34;helvetica neue for number&amp;#34; , , &amp;#34;blinkmacsystemfont&amp;#34; , &amp;#34;segoe ui&amp;#34; , &amp;#34;roboto&amp;#34; , &amp;#34;pingfang sc&amp;#34; , &amp;#34;hiragino sans gb&amp;#34; , &amp;#34;microsoft yahei&amp;#34; , &amp;#34;helvetica neue&amp;#34; , &amp;#34;helvetica&amp;#34; , &amp;#34;arial&amp;#34; , sans-serif ; font-size: 13px ; background-color: rgb(255 , 255 , 255)&quot;&gt;t_pba_weishi_past_lt14&lt;br&gt;&lt;/span&gt;&lt;span style=&quot;color: rgb(77 , 77 , 77) ; font-family: &amp;#34;helvetica neue for number&amp;#34; , , &amp;#34;blinkmacsystemfont&amp;#34; , &amp;#34;segoe ui&amp;#34; , &amp;#34;roboto&amp;#34; , &amp;#34;pingfang sc&amp;#34; , &amp;#34;hiragino sans gb&amp;#34; , &amp;#34;microsoft yahei&amp;#34; , &amp;#34;helvetica neue&amp;#34; , &amp;#34;helvetica&amp;#34; , &amp;#34;arial&amp;#34; , sans-serif ; font-size: 13px ; background-color: rgb(255 , 255 , 255)&quot;&gt;t_pba_weishi_past_lt30&lt;/span&gt;&lt;span style=&quot;color: rgb(77 , 77 , 77) ; font-family: &amp;#34;helvetica neue for number&amp;#34; , , &amp;#34;blinkmacsystemfont&amp;#34; , &amp;#34;segoe ui&amp;#34; , &amp;#34;roboto&amp;#34; , &amp;#34;pingfang sc&amp;#34; , &amp;#34;hiragino sans gb&amp;#34; , &amp;#34;microsoft yahei&amp;#34; , &amp;#34;helvetica neue&amp;#34; , &amp;#34;helvetica&amp;#34; , &amp;#34;arial&amp;#34; , sans-serif ; font-size: 13px ; background-color: rgb(255 , 255 , 255)&quot;&gt;&lt;br&gt;&lt;/span&gt;" style="rounded=0;whiteSpace=wrap;html=1;" vertex="1" parent="1">
          <mxGeometry x="1225" y="463" width="230" height="87" as="geometry" />
        </mxCell>
        <mxCell id="HGymCE_MMpxh3qqSFFxv-48" value="画像数据-新增第30天&lt;br&gt;t_pba_weishi_lt_huaxiang" style="rounded=0;whiteSpace=wrap;html=1;" vertex="1" parent="1">
          <mxGeometry x="1258" y="1408" width="180" height="60" as="geometry" />
        </mxCell>
        <mxCell id="HGymCE_MMpxh3qqSFFxv-49" value="画像数据-新增当天&lt;br&gt;t_pba_weishi_lt_huaxiang_newday" style="rounded=0;whiteSpace=wrap;html=1;" vertex="1" parent="1">
          <mxGeometry x="1253" y="1629" width="190" height="60" as="geometry" />
        </mxCell>
        <mxCell id="HGymCE_MMpxh3qqSFFxv-63" style="edgeStyle=orthogonalEdgeStyle;rounded=0;orthogonalLoop=1;jettySize=auto;html=1;exitX=1;exitY=0.5;exitDx=0;exitDy=0;entryX=0;entryY=0.5;entryDx=0;entryDy=0;" edge="1" parent="1" source="HGymCE_MMpxh3qqSFFxv-52" target="HGymCE_MMpxh3qqSFFxv-55">
          <mxGeometry relative="1" as="geometry" />
        </mxCell>
        <mxCell id="HGymCE_MMpxh3qqSFFxv-52" value="&lt;span style=&quot;background-color: rgb(255 , 255 , 255)&quot;&gt;&lt;font color=&quot;#4d4d4d&quot;&gt;&lt;span style=&quot;font-size: 13px&quot;&gt;微视feat(t+30)t_pba_ws_lt_feat_v1&lt;/span&gt;&lt;/font&gt;&lt;br&gt;&lt;/span&gt;" style="rounded=0;whiteSpace=wrap;html=1;fillColor=#b0e3e6;strokeColor=#0e8088;" vertex="1" parent="1">
          <mxGeometry x="1794" y="918" width="260" height="60" as="geometry" />
        </mxCell>
        <mxCell id="HGymCE_MMpxh3qqSFFxv-81" style="edgeStyle=orthogonalEdgeStyle;rounded=0;orthogonalLoop=1;jettySize=auto;html=1;exitX=1;exitY=0.5;exitDx=0;exitDy=0;entryX=0;entryY=0.632;entryDx=0;entryDy=0;entryPerimeter=0;" edge="1" parent="1" source="HGymCE_MMpxh3qqSFFxv-54" target="HGymCE_MMpxh3qqSFFxv-80">
          <mxGeometry relative="1" as="geometry" />
        </mxCell>
        <mxCell id="HGymCE_MMpxh3qqSFFxv-54" value="&lt;span style=&quot;color: rgb(77 , 77 , 77) ; font-family: &amp;#34;helvetica neue for number&amp;#34; , , &amp;#34;blinkmacsystemfont&amp;#34; , &amp;#34;segoe ui&amp;#34; , &amp;#34;roboto&amp;#34; , &amp;#34;pingfang sc&amp;#34; , &amp;#34;hiragino sans gb&amp;#34; , &amp;#34;microsoft yahei&amp;#34; , &amp;#34;helvetica neue&amp;#34; , &amp;#34;helvetica&amp;#34; , &amp;#34;arial&amp;#34; , sans-serif ; font-size: 13px ; background-color: rgb(255 , 255 , 255)&quot;&gt;t_pba_ws_lt_feat_v1_7d&lt;/span&gt;" style="rounded=0;whiteSpace=wrap;html=1;fillColor=#b0e3e6;strokeColor=#0e8088;" vertex="1" parent="1">
          <mxGeometry x="1794" y="1295" width="260" height="60" as="geometry" />
        </mxCell>
        <mxCell id="HGymCE_MMpxh3qqSFFxv-126" style="edgeStyle=orthogonalEdgeStyle;rounded=0;orthogonalLoop=1;jettySize=auto;html=1;exitX=1;exitY=0.5;exitDx=0;exitDy=0;entryX=0;entryY=0.571;entryDx=0;entryDy=0;entryPerimeter=0;" edge="1" parent="1" source="HGymCE_MMpxh3qqSFFxv-55" target="HGymCE_MMpxh3qqSFFxv-118">
          <mxGeometry relative="1" as="geometry" />
        </mxCell>
        <mxCell id="HGymCE_MMpxh3qqSFFxv-55" value="微视model（t+30）t_pba_ws_lt_feat_model" style="rounded=0;whiteSpace=wrap;html=1;fillColor=#f8cecc;strokeColor=#b85450;" vertex="1" parent="1">
          <mxGeometry x="2196" y="918" width="260" height="60" as="geometry" />
        </mxCell>
        <mxCell id="HGymCE_MMpxh3qqSFFxv-80" value="&lt;span style=&quot;color: rgb(77 , 77 , 77) ; font-family: &amp;#34;helvetica neue for number&amp;#34; , , &amp;#34;blinkmacsystemfont&amp;#34; , &amp;#34;segoe ui&amp;#34; , &amp;#34;roboto&amp;#34; , &amp;#34;pingfang sc&amp;#34; , &amp;#34;hiragino sans gb&amp;#34; , &amp;#34;microsoft yahei&amp;#34; , &amp;#34;helvetica neue&amp;#34; , &amp;#34;helvetica&amp;#34; , &amp;#34;arial&amp;#34; , sans-serif ; font-size: 13px ; background-color: rgb(255 , 255 , 255)&quot;&gt;&amp;nbsp;&lt;/span&gt;&lt;span style=&quot;color: rgb(77 , 77 , 77) ; font-family: &amp;#34;helvetica neue for number&amp;#34; , , &amp;#34;blinkmacsystemfont&amp;#34; , &amp;#34;segoe ui&amp;#34; , &amp;#34;roboto&amp;#34; , &amp;#34;pingfang sc&amp;#34; , &amp;#34;hiragino sans gb&amp;#34; , &amp;#34;microsoft yahei&amp;#34; , &amp;#34;helvetica neue&amp;#34; , &amp;#34;helvetica&amp;#34; , &amp;#34;arial&amp;#34; , sans-serif ; font-size: 13px ; background-color: rgb(255 , 255 , 255)&quot;&gt;微视model(t+7)t_pba_ws_lt_feat_model_7d&lt;/span&gt;" style="rounded=0;whiteSpace=wrap;html=1;fillColor=#f8cecc;strokeColor=#b85450;" vertex="1" parent="1">
          <mxGeometry x="2205" y="1289" width="267" height="60" as="geometry" />
        </mxCell>
        <mxCell id="HGymCE_MMpxh3qqSFFxv-85" value="" style="curved=1;endArrow=classic;html=1;entryX=0.006;entryY=0.59;entryDx=0;entryDy=0;entryPerimeter=0;exitX=0.451;exitY=1;exitDx=0;exitDy=0;exitPerimeter=0;" edge="1" parent="1" source="HGymCE_MMpxh3qqSFFxv-1" target="HGymCE_MMpxh3qqSFFxv-18">
          <mxGeometry width="50" height="50" relative="1" as="geometry">
            <mxPoint x="188" y="399" as="sourcePoint" />
            <mxPoint x="238" y="349" as="targetPoint" />
            <Array as="points">
              <mxPoint x="323" y="301" />
              <mxPoint x="275" y="400" />
            </Array>
          </mxGeometry>
        </mxCell>
        <mxCell id="HGymCE_MMpxh3qqSFFxv-87" value="新增用户表&lt;br&gt;join&lt;br&gt;新日活模型&lt;br&gt;where imp_date &amp;gt; xxx&lt;br&gt;and imp_date&amp;lt; xxx" style="edgeLabel;html=1;align=center;verticalAlign=middle;resizable=0;points=[];" vertex="1" connectable="0" parent="HGymCE_MMpxh3qqSFFxv-85">
          <mxGeometry x="0.2876" y="8" relative="1" as="geometry">
            <mxPoint as="offset" />
          </mxGeometry>
        </mxCell>
        <mxCell id="HGymCE_MMpxh3qqSFFxv-88" value="" style="curved=1;endArrow=classic;html=1;" edge="1" parent="1" source="HGymCE_MMpxh3qqSFFxv-2">
          <mxGeometry width="50" height="50" relative="1" as="geometry">
            <mxPoint x="326" y="695" as="sourcePoint" />
            <mxPoint x="634" y="551" as="targetPoint" />
            <Array as="points">
              <mxPoint x="376" y="695" />
              <mxPoint x="326" y="645" />
            </Array>
          </mxGeometry>
        </mxCell>
        <mxCell id="HGymCE_MMpxh3qqSFFxv-89" value="新增用户表&lt;br&gt;left join&lt;br&gt;新老融合表&lt;br&gt;select&amp;nbsp;&lt;div&gt;&amp;nbsp; &amp;nbsp; &amp;nbsp; &amp;nbsp; &amp;nbsp; &amp;nbsp; &amp;nbsp; &amp;nbsp; &amp;nbsp; &amp;nbsp; &amp;nbsp; &amp;nbsp; qimei,&lt;/div&gt;&lt;div&gt;&amp;nbsp; &amp;nbsp; &amp;nbsp; &amp;nbsp; &amp;nbsp; &amp;nbsp; &amp;nbsp; &amp;nbsp; &amp;nbsp; &amp;nbsp; &amp;nbsp; &amp;nbsp; first_channel_id,&lt;/div&gt;&lt;div&gt;&amp;nbsp; &amp;nbsp; &amp;nbsp; &amp;nbsp; &amp;nbsp; &amp;nbsp; &amp;nbsp; &amp;nbsp; &amp;nbsp; &amp;nbsp; &amp;nbsp; &amp;nbsp; sum(log_time) log_time&lt;/div&gt;" style="edgeLabel;html=1;align=center;verticalAlign=middle;resizable=0;points=[];" vertex="1" connectable="0" parent="HGymCE_MMpxh3qqSFFxv-88">
          <mxGeometry x="0.1975" y="-11" relative="1" as="geometry">
            <mxPoint as="offset" />
          </mxGeometry>
        </mxCell>
        <mxCell id="HGymCE_MMpxh3qqSFFxv-90" value="" style="curved=1;endArrow=classic;html=1;entryX=0;entryY=0.5;entryDx=0;entryDy=0;" edge="1" parent="1" source="HGymCE_MMpxh3qqSFFxv-32" target="HGymCE_MMpxh3qqSFFxv-38">
          <mxGeometry width="50" height="50" relative="1" as="geometry">
            <mxPoint x="1016" y="871" as="sourcePoint" />
            <mxPoint x="1066" y="821" as="targetPoint" />
            <Array as="points">
              <mxPoint x="1031" y="871" />
              <mxPoint x="1054" y="826" />
            </Array>
          </mxGeometry>
        </mxCell>
        <mxCell id="HGymCE_MMpxh3qqSFFxv-91" value="新增用户&lt;br&gt;left join&lt;br&gt;lt_1d_acc&lt;br&gt;left join&lt;br&gt;lt_3d_acc&lt;br&gt;left join&lt;br&gt;.&lt;br&gt;.&lt;br&gt;." style="edgeLabel;html=1;align=center;verticalAlign=middle;resizable=0;points=[];" vertex="1" connectable="0" parent="HGymCE_MMpxh3qqSFFxv-90">
          <mxGeometry x="0.653" y="1" relative="1" as="geometry">
            <mxPoint as="offset" />
          </mxGeometry>
        </mxCell>
        <mxCell id="HGymCE_MMpxh3qqSFFxv-92" value="" style="curved=1;endArrow=classic;html=1;exitX=1.001;exitY=0.61;exitDx=0;exitDy=0;exitPerimeter=0;entryX=0.301;entryY=0;entryDx=0;entryDy=0;entryPerimeter=0;" edge="1" parent="1" target="HGymCE_MMpxh3qqSFFxv-38">
          <mxGeometry width="50" height="50" relative="1" as="geometry">
            <mxPoint x="939.9999999999998" y="537" as="sourcePoint" />
            <mxPoint x="1250.5062953995155" y="756.5" as="targetPoint" />
            <Array as="points">
              <mxPoint x="1060.7" y="621.5" />
              <mxPoint x="1105.7" y="621.5" />
            </Array>
          </mxGeometry>
        </mxCell>
        <mxCell id="HGymCE_MMpxh3qqSFFxv-93" value="新增用户&lt;br&gt;left join&lt;br&gt;LT3&lt;br&gt;left join&lt;br&gt;LT7&lt;br&gt;.&lt;br&gt;.&lt;br&gt;." style="edgeLabel;html=1;align=center;verticalAlign=middle;resizable=0;points=[];" vertex="1" connectable="0" parent="HGymCE_MMpxh3qqSFFxv-92">
          <mxGeometry x="0.5922" y="-4" relative="1" as="geometry">
            <mxPoint as="offset" />
          </mxGeometry>
        </mxCell>
        <mxCell id="HGymCE_MMpxh3qqSFFxv-94" value="" style="curved=1;endArrow=classic;html=1;exitX=1;exitY=0.5;exitDx=0;exitDy=0;" edge="1" parent="1" source="HGymCE_MMpxh3qqSFFxv-4" target="HGymCE_MMpxh3qqSFFxv-38">
          <mxGeometry width="50" height="50" relative="1" as="geometry">
            <mxPoint x="303" y="1167" as="sourcePoint" />
            <mxPoint x="984" y="1027" as="targetPoint" />
            <Array as="points">
              <mxPoint x="984" y="1077" />
              <mxPoint x="934" y="1027" />
            </Array>
          </mxGeometry>
        </mxCell>
        <mxCell id="HGymCE_MMpxh3qqSFFxv-95" value="新增用户表&lt;br&gt;left join&lt;br&gt;imp_date = 30d and award_days_last_1_days=1" style="edgeLabel;html=1;align=center;verticalAlign=middle;resizable=0;points=[];" vertex="1" connectable="0" parent="HGymCE_MMpxh3qqSFFxv-94">
          <mxGeometry x="0.6771" y="-2" relative="1" as="geometry">
            <mxPoint x="-122.36" y="76.29" as="offset" />
          </mxGeometry>
        </mxCell>
        <mxCell id="HGymCE_MMpxh3qqSFFxv-98" value="" style="curved=1;endArrow=classic;html=1;" edge="1" parent="1" source="HGymCE_MMpxh3qqSFFxv-18" target="HGymCE_MMpxh3qqSFFxv-45">
          <mxGeometry width="50" height="50" relative="1" as="geometry">
            <mxPoint x="990" y="502" as="sourcePoint" />
            <mxPoint x="1040" y="452" as="targetPoint" />
            <Array as="points">
              <mxPoint x="1015" y="515" />
              <mxPoint x="1035" y="434" />
            </Array>
          </mxGeometry>
        </mxCell>
        <mxCell id="HGymCE_MMpxh3qqSFFxv-99" value="&lt;span style=&quot;color: rgba(0 , 0 , 0 , 0) ; font-family: monospace ; font-size: 0px ; background-color: rgb(248 , 249 , 250)&quot;&gt;%3CmxGraphModel%3E%3Croot%3E%3CmxCell%20id%3D%220%22%2F%3E%3CmxCell%20id%3D%221%22%20parent%3D%220%22%2F%3E%3CmxCell%20id%3D%222%22%20value%3D%22select%26lt%3Bbr%26gt%3Bfirst_date%2C%26lt%3Bbr%26gt%3Bfirst_channel_id%2C%26lt%3Bbr%26gt%3Bavg(lt)%26lt%3Bbr%26gt%3Bgroup%20by%26amp%3Bnbsp%3B%26lt%3Bbr%26gt%3Bfirst_date%2C%26lt%3Bbr%26gt%3Bfirst_channel_id%22%20style%3D%22edgeLabel%3Bhtml%3D1%3Balign%3Dcenter%3BverticalAlign%3Dmiddle%3Bresizable%3D0%3Bpoints%3D%5B%5D%3B%22%20vertex%3D%221%22%20connectable%3D%220%22%20parent%3D%221%22%3E%3CmxGeometry%20x%3D%221318.082857142857%22%20y%3D%22490%22%20as%3D%22geometry%22%2F%3E%3C%2FmxCell%3E%3C%2Froot%3E%3C%2FmxGraphModel%3E&lt;/span&gt;" style="edgeLabel;html=1;align=center;verticalAlign=middle;resizable=0;points=[];" vertex="1" connectable="0" parent="HGymCE_MMpxh3qqSFFxv-98">
          <mxGeometry x="0.2436" y="-1" relative="1" as="geometry">
            <mxPoint as="offset" />
          </mxGeometry>
        </mxCell>
        <mxCell id="HGymCE_MMpxh3qqSFFxv-100" value="select&lt;br&gt;first_date,&lt;br&gt;first_channel_id,&lt;br&gt;avg(lt)&lt;br&gt;group by&amp;nbsp;&lt;br&gt;first_date,&lt;br&gt;first_channel_id" style="edgeLabel;html=1;align=center;verticalAlign=middle;resizable=0;points=[];" vertex="1" connectable="0" parent="1">
          <mxGeometry x="1268.002857142857" y="473" as="geometry">
            <mxPoint x="-170" y="14" as="offset" />
          </mxGeometry>
        </mxCell>
        <mxCell id="HGymCE_MMpxh3qqSFFxv-101" value="" style="curved=1;endArrow=classic;html=1;exitX=1;exitY=0.75;exitDx=0;exitDy=0;entryX=0;entryY=0.25;entryDx=0;entryDy=0;fillColor=#fad7ac;strokeColor=#b46504;" edge="1" parent="1" source="HGymCE_MMpxh3qqSFFxv-32" target="HGymCE_MMpxh3qqSFFxv-54">
          <mxGeometry width="50" height="50" relative="1" as="geometry">
            <mxPoint x="943" y="1112" as="sourcePoint" />
            <mxPoint x="1508" y="1219" as="targetPoint" />
            <Array as="points">
              <mxPoint x="1336" y="1020" />
              <mxPoint x="1365" y="1174" />
              <mxPoint x="1568" y="1237" />
            </Array>
          </mxGeometry>
        </mxCell>
        <mxCell id="HGymCE_MMpxh3qqSFFxv-102" value="取新增用户第1、3、7天用户特征值聚合" style="edgeLabel;html=1;align=center;verticalAlign=middle;resizable=0;points=[];" vertex="1" connectable="0" parent="HGymCE_MMpxh3qqSFFxv-101">
          <mxGeometry x="0.5834" y="-4" relative="1" as="geometry">
            <mxPoint as="offset" />
          </mxGeometry>
        </mxCell>
        <mxCell id="HGymCE_MMpxh3qqSFFxv-103" value="" style="curved=1;endArrow=classic;html=1;entryX=0;entryY=0.5;entryDx=0;entryDy=0;exitX=1;exitY=0.5;exitDx=0;exitDy=0;fillColor=#fad7ac;strokeColor=#b46504;" edge="1" parent="1" source="HGymCE_MMpxh3qqSFFxv-4" target="HGymCE_MMpxh3qqSFFxv-54">
          <mxGeometry width="50" height="50" relative="1" as="geometry">
            <mxPoint x="1381" y="1378" as="sourcePoint" />
            <mxPoint x="1431" y="1328" as="targetPoint" />
            <Array as="points">
              <mxPoint x="1233" y="1325" />
              <mxPoint x="1360" y="1294" />
              <mxPoint x="1455" y="1325" />
            </Array>
          </mxGeometry>
        </mxCell>
        <mxCell id="HGymCE_MMpxh3qqSFFxv-104" value="取新增用户新增第1-7天每一天的红包数据" style="edgeLabel;html=1;align=center;verticalAlign=middle;resizable=0;points=[];" vertex="1" connectable="0" parent="HGymCE_MMpxh3qqSFFxv-103">
          <mxGeometry x="0.5042" y="8" relative="1" as="geometry">
            <mxPoint as="offset" />
          </mxGeometry>
        </mxCell>
        <mxCell id="HGymCE_MMpxh3qqSFFxv-106" value="" style="curved=1;endArrow=classic;html=1;exitX=1;exitY=0.5;exitDx=0;exitDy=0;entryX=0.565;entryY=1.017;entryDx=0;entryDy=0;entryPerimeter=0;fillColor=#fad7ac;strokeColor=#b46504;" edge="1" parent="1" source="HGymCE_MMpxh3qqSFFxv-49" target="HGymCE_MMpxh3qqSFFxv-54">
          <mxGeometry width="50" height="50" relative="1" as="geometry">
            <mxPoint x="1653" y="1558" as="sourcePoint" />
            <mxPoint x="1703" y="1508" as="targetPoint" />
            <Array as="points">
              <mxPoint x="1698" y="1659" />
              <mxPoint x="1680" y="1508" />
            </Array>
          </mxGeometry>
        </mxCell>
        <mxCell id="HGymCE_MMpxh3qqSFFxv-107" value="取新增用户新增当天画像数据" style="edgeLabel;html=1;align=center;verticalAlign=middle;resizable=0;points=[];" vertex="1" connectable="0" parent="HGymCE_MMpxh3qqSFFxv-106">
          <mxGeometry x="0.4946" y="-20" relative="1" as="geometry">
            <mxPoint y="-1" as="offset" />
          </mxGeometry>
        </mxCell>
        <mxCell id="HGymCE_MMpxh3qqSFFxv-108" value="" style="curved=1;endArrow=classic;html=1;exitX=1;exitY=0.75;exitDx=0;exitDy=0;entryX=0.419;entryY=0.012;entryDx=0;entryDy=0;entryPerimeter=0;fillColor=#fad7ac;strokeColor=#b46504;" edge="1" parent="1" source="HGymCE_MMpxh3qqSFFxv-45" target="HGymCE_MMpxh3qqSFFxv-54">
          <mxGeometry width="50" height="50" relative="1" as="geometry">
            <mxPoint x="1636" y="1075" as="sourcePoint" />
            <mxPoint x="1686" y="1025" as="targetPoint" />
            <Array as="points">
              <mxPoint x="1732" y="1057" />
              <mxPoint x="1700" y="1126" />
            </Array>
          </mxGeometry>
        </mxCell>
        <mxCell id="HGymCE_MMpxh3qqSFFxv-109" value="取渠道过去x天的前一个星期的平均LT" style="edgeLabel;html=1;align=center;verticalAlign=middle;resizable=0;points=[];" vertex="1" connectable="0" parent="HGymCE_MMpxh3qqSFFxv-108">
          <mxGeometry x="0.6664" y="4" relative="1" as="geometry">
            <mxPoint y="1" as="offset" />
          </mxGeometry>
        </mxCell>
        <mxCell id="HGymCE_MMpxh3qqSFFxv-110" value="" style="curved=1;endArrow=classic;html=1;exitX=1;exitY=0.5;exitDx=0;exitDy=0;fillColor=#60a917;strokeColor=#2D7600;" edge="1" parent="1" source="HGymCE_MMpxh3qqSFFxv-48" target="HGymCE_MMpxh3qqSFFxv-52">
          <mxGeometry width="50" height="50" relative="1" as="geometry">
            <mxPoint x="1526" y="1434" as="sourcePoint" />
            <mxPoint x="1576" y="1384" as="targetPoint" />
            <Array as="points">
              <mxPoint x="1576" y="1434" />
              <mxPoint x="1526" y="1384" />
            </Array>
          </mxGeometry>
        </mxCell>
        <mxCell id="HGymCE_MMpxh3qqSFFxv-111" value="取新增第30天的画像数据" style="edgeLabel;html=1;align=center;verticalAlign=middle;resizable=0;points=[];" vertex="1" connectable="0" parent="HGymCE_MMpxh3qqSFFxv-110">
          <mxGeometry x="0.7715" y="1" relative="1" as="geometry">
            <mxPoint as="offset" />
          </mxGeometry>
        </mxCell>
        <mxCell id="HGymCE_MMpxh3qqSFFxv-114" value="" style="curved=1;endArrow=classic;html=1;exitX=1;exitY=0.5;exitDx=0;exitDy=0;fillColor=#008a00;strokeColor=#005700;" edge="1" parent="1" source="HGymCE_MMpxh3qqSFFxv-45" target="HGymCE_MMpxh3qqSFFxv-52">
          <mxGeometry width="50" height="50" relative="1" as="geometry">
            <mxPoint x="1776" y="662" as="sourcePoint" />
            <mxPoint x="1826" y="612" as="targetPoint" />
            <Array as="points">
              <mxPoint x="1671" y="638" />
              <mxPoint x="1776" y="654" />
            </Array>
          </mxGeometry>
        </mxCell>
        <mxCell id="HGymCE_MMpxh3qqSFFxv-117" value="&lt;span style=&quot;color: rgb(0 , 0 , 0) ; font-family: &amp;#34;helvetica&amp;#34; ; font-size: 11px ; font-style: normal ; font-weight: 400 ; letter-spacing: normal ; text-align: center ; text-indent: 0px ; text-transform: none ; word-spacing: 0px ; background-color: rgb(255 , 255 , 255) ; display: inline ; float: none&quot;&gt;取渠道过去x天的前一个星期的平均LT&lt;/span&gt;" style="edgeLabel;html=1;align=center;verticalAlign=middle;resizable=0;points=[];" vertex="1" connectable="0" parent="HGymCE_MMpxh3qqSFFxv-114">
          <mxGeometry x="0.4448" y="-4" relative="1" as="geometry">
            <mxPoint as="offset" />
          </mxGeometry>
        </mxCell>
        <mxCell id="HGymCE_MMpxh3qqSFFxv-115" value="" style="curved=1;endArrow=classic;html=1;fillColor=#008a00;strokeColor=#005700;" edge="1" parent="1" source="HGymCE_MMpxh3qqSFFxv-11" target="HGymCE_MMpxh3qqSFFxv-52">
          <mxGeometry width="50" height="50" relative="1" as="geometry">
            <mxPoint x="1951" y="634" as="sourcePoint" />
            <mxPoint x="2001" y="584" as="targetPoint" />
            <Array as="points">
              <mxPoint x="1803" y="599" />
              <mxPoint x="2016" y="644" />
            </Array>
          </mxGeometry>
        </mxCell>
        <mxCell id="HGymCE_MMpxh3qqSFFxv-116" value="取新增当天特征值" style="edgeLabel;html=1;align=center;verticalAlign=middle;resizable=0;points=[];" vertex="1" connectable="0" parent="HGymCE_MMpxh3qqSFFxv-115">
          <mxGeometry x="0.5026" y="-31" relative="1" as="geometry">
            <mxPoint as="offset" />
          </mxGeometry>
        </mxCell>
        <mxCell id="HGymCE_MMpxh3qqSFFxv-118" value="&lt;span style=&quot;font-size: 15px&quot;&gt;t+30的预测结果表&lt;/span&gt;&lt;br&gt;&lt;table style=&quot;border-collapse: collapse&quot;&gt;&lt;colgroup&gt;&lt;col width=&quot;346&quot; style=&quot;width: 346px&quot;&gt;&lt;/colgroup&gt;&lt;tbody&gt;&lt;tr style=&quot;height: 24px&quot;&gt;&lt;td style=&quot;empty-cells: show ; line-height: normal ; vertical-align: middle ; outline-width: 0px ; overflow-wrap: break-word ; word-break: normal ; text-align: left&quot;&gt;&lt;font face=&quot;microsoft yahei&quot;&gt;&lt;span style=&quot;font-size: 16px&quot;&gt;tesla:1293484&lt;/span&gt;&lt;/font&gt;&lt;/td&gt;&lt;/tr&gt;&lt;tr style=&quot;height: 24px&quot;&gt;&lt;td style=&quot;empty-cells: show ; line-height: normal ; vertical-align: middle ; outline-width: 0px ; overflow-wrap: break-word ; word-break: normal ; text-align: left ; font-family: &amp;#34;microsoft yahei&amp;#34; ; font-size: 12pt&quot;&gt;&lt;font style=&quot;font-size: 12pt&quot;&gt;t_pba_ws_lt_180_pred_detail&lt;/font&gt;&lt;/td&gt;&lt;/tr&gt;&lt;/tbody&gt;&lt;/table&gt;" style="rounded=0;whiteSpace=wrap;html=1;fillColor=#b1ddf0;strokeColor=#10739e;" vertex="1" parent="1">
          <mxGeometry x="2769" y="882" width="236" height="110" as="geometry" />
        </mxCell>
        <mxCell id="HGymCE_MMpxh3qqSFFxv-122" value="&lt;font&gt;&lt;font style=&quot;font-size: 15px&quot;&gt;t+30的预测结果表&lt;/font&gt;&lt;br&gt;&lt;span style=&quot;font-size: 15px&quot;&gt;teslaid：1293484&lt;/span&gt;&lt;/font&gt;&lt;br&gt;&lt;table style=&quot;border-collapse: collapse&quot;&gt;&lt;tbody&gt;&lt;tr style=&quot;height: 24px&quot;&gt;&lt;td style=&quot;empty-cells: show ; line-height: normal ; vertical-align: middle ; outline-width: 0px ; overflow-wrap: break-word ; word-break: normal ; text-align: left ; font-family: &amp;#34;microsoft yahei&amp;#34; ; font-size: 12pt&quot;&gt;&lt;font style=&quot;font-size: 12pt&quot;&gt;t_pba_ws_lt_60_pred_detail&lt;/font&gt;&lt;/td&gt;&lt;/tr&gt;&lt;tr style=&quot;height: 24px&quot;&gt;&lt;/tr&gt;&lt;/tbody&gt;&lt;/table&gt;" style="rounded=0;whiteSpace=wrap;html=1;" vertex="1" parent="1">
          <mxGeometry x="2741" y="665" width="298" height="106" as="geometry" />
        </mxCell>
        <mxCell id="HGymCE_MMpxh3qqSFFxv-123" value="&lt;span style=&quot;font-family: &amp;#34;microsoft yahei&amp;#34; ; font-size: 16px ; text-align: left&quot;&gt;t+30的预测结果表&lt;br&gt;teslaid：1899764&lt;br&gt;t_pba_ws_lt_365_pred_detail&lt;/span&gt;" style="rounded=0;whiteSpace=wrap;html=1;" vertex="1" parent="1">
          <mxGeometry x="2741" y="1071" width="292" height="79" as="geometry" />
        </mxCell>
        <mxCell id="HGymCE_MMpxh3qqSFFxv-124" value="" style="curved=1;endArrow=classic;html=1;entryX=0;entryY=0.5;entryDx=0;entryDy=0;" edge="1" parent="1" target="HGymCE_MMpxh3qqSFFxv-122">
          <mxGeometry width="50" height="50" relative="1" as="geometry">
            <mxPoint x="2460" y="946" as="sourcePoint" />
            <mxPoint x="2567" y="806" as="targetPoint" />
            <Array as="points">
              <mxPoint x="2567" y="856" />
              <mxPoint x="2567" y="806" />
            </Array>
          </mxGeometry>
        </mxCell>
        <mxCell id="HGymCE_MMpxh3qqSFFxv-125" value="" style="curved=1;endArrow=classic;html=1;exitX=1;exitY=0.75;exitDx=0;exitDy=0;entryX=0;entryY=0.75;entryDx=0;entryDy=0;" edge="1" parent="1" source="HGymCE_MMpxh3qqSFFxv-55" target="HGymCE_MMpxh3qqSFFxv-123">
          <mxGeometry width="50" height="50" relative="1" as="geometry">
            <mxPoint x="2519" y="976" as="sourcePoint" />
            <mxPoint x="2569" y="926" as="targetPoint" />
            <Array as="points">
              <mxPoint x="2546" y="1040" />
              <mxPoint x="2611" y="1040" />
            </Array>
          </mxGeometry>
        </mxCell>
      </root>
    </mxGraphModel>
  </diagram>
</mxfile>
